<?xml version="1.0" encoding="UTF-8"?>
<!-- Generated by jsxcad -->
<!DOCTYPE svg PUBLIC "-//W3C//DTD SVG 1.1 Tiny//EN" "http://www.w3.org/Graphics/SVG/1.1/DTD/svg11-tiny.dtd">
<svg baseProfile="tiny" height="15.94641mm" width="15.97234mm" viewBox="-0.00088 0.05359 15.97234 15.94641" version="1.1" stroke="black" stroke-width=".1" fill="none" xmlns="http://www.w3.org/2000/svg">
<path fill="#000000" stroke="#000000" d="M-0.00088 7.52982 L0.32076 5.70763 L1.05966 3.99556 L2.15945 2.51734 L3.58162 1.32110 L5.24704 0.48322 L7.06086 0.05359 L8.90972 0.05359 L10.72355 0.48322 L12.38896 1.32110 L13.81114 2.51734 L14.91093 3.99556 L15.64983 5.70763 L15.97147 7.52982 L15.86312 9.39279 L15.32851 11.17446 L14.40792 12.76969 L13.12398 14.13139 L11.57349 15.15016 L9.82689 15.78515 L7.98529 16.00000 L6.14369 15.78515 L4.39710 15.15016 L2.84661 14.13139 L1.56267 12.76969 L0.64208 11.17446 L0.10747 9.39279 z M9.48529 8.00000 L9.28385 7.24917 L8.73613 6.70144 L7.98529 6.50000 L7.23446 6.70144 L6.68674 7.24917 L6.48529 8.00000 L6.68674 8.75083 L7.23446 9.29856 L7.98529 9.50000 L8.73613 9.29856 L9.28385 8.75083 z"/>
</svg>